PathFileType	4	(X/Y/Z)	C:\Documents and Settings\rtobon\Desktop\NewMocap\New\NoT\ActorI_Run.trc
DataRate	CameraRate	NumFrames	NumMarkers	Units	OrigDataRate	OrigDataStartFrame	OrigNumFrames
120.00	120.00	       4	49	mm	120.00	1	       105
Frame#	Time	Root			LtFtHip			LtBkHip			RtFtHip			RtBkHip			Spine1			Spine2			Spine3			SpineOffsetLow			SpineOffsetHigh			LtCtChest			RtCtChest			LtChest			RtChest			LtShoulder			LtBicep			LtElbow			LtForeArm			LtWrist			LtPinky			LtThumb			LtMiddFing			RtShoulder			RtBicep			RtElbow			RtForeArm			RtWrist			RtPinky			RtThumb			RtMiddFing			LtThigh			LtKnee			LtCalf			LtAnkle			LtHeel			LtBall			LtToe			RtThigh			RtKnee			RtCalf			RtAnkle			RtHeel			RtBall			RtToe			TopHead			LfFtHead			LtBkHead			RtFtHead			RtBkHead			
		X1	Y1	Z1	X2	Y2	Z2	X3	Y3	Z3	X4	Y4	Z4	X5	Y5	Z5	X6	Y6	Z6	X7	Y7	Z7	X8	Y8	Z8	X9	Y9	Z9	X10	Y10	Z10	X11	Y11	Z11	X12	Y12	Z12	X13	Y13	Z13	X14	Y14	Z14	X15	Y15	Z15	X16	Y16	Z16	X17	Y17	Z17	X18	Y18	Z18	X19	Y19	Z19	X20	Y20	Z20	X21	Y21	Z21	X22	Y22	Z22	X23	Y23	Z23	X24	Y24	Z24	X25	Y25	Z25	X26	Y26	Z26	X27	Y27	Z27	X28	Y28	Z28	X29	Y29	Z29	X30	Y30	Z30	X31	Y31	Z31	X32	Y32	Z32	X33	Y33	Z33	X34	Y34	Z34	X35	Y35	Z35	X36	Y36	Z36	X37	Y37	Z37	X38	Y38	Z38	X39	Y39	Z39	X40	Y40	Z40	X41	Y41	Z41	X42	Y42	Z42	X43	Y43	Z43	X44	Y44	Z44	X45	Y45	Z45	X46	Y46	Z46	X47	Y47	Z47	X48	Y48	Z48	X49	Y49	Z49	
1	0.000	-1665.08765	939.67419	40.11145	-1467.75110	892.05432	-104.78685	-1652.76404	931.60803	-81.31964	-1434.70752	876.21027	146.58975	-1627.92297	924.30487	168.39374	-1707.67578	1066.64832	42.47363	-1744.57397	1193.36292	43.96040	-1753.29468	1295.06873	44.32655	-1663.92163	1004.02954	125.50018	-1752.35095	1245.28064	-60.36501	-1464.52271	1200.60168	9.86345	-1499.79651	1255.68616	65.18753	-1530.57727	1285.89075	-55.55923	-1532.39929	1280.30225	144.56711	-1643.74536	1321.88696	-146.09354	-1558.90454	1129.22839	-194.13652	-1619.58289	1000.91705	-254.10112	-1476.38086	1048.96082	-158.96281	-1389.22583	1020.09808	-159.20267	-1321.43970	982.77252	-130.95506	-1388.02356	1074.94153	-102.09250	-1332.12610	1052.50500	-141.47896	-1642.70349	1284.10608	252.69290	-1540.08154	1123.19336	291.74323	-1574.84766	986.29883	359.25903	-1473.28613	1048.71313	274.85678	-1361.42285	1021.09296	252.90825	-1297.02014	988.65704	201.36093	-1384.18262	1079.16321	213.04268	-1309.81091	1051.96069	233.70399	-1398.63293	685.52454	-152.02983	-1358.76501	480.82901	-188.11766	-1530.77356	474.40744	-155.83061	-1685.28113	353.44345	-105.39816	-1779.37976	387.85297	-6.28761	-1727.48901	247.71942	-119.56104	-1698.97998	142.90312	-92.63408	-1397.29688	594.37048	120.40595	-1410.33081	413.09189	152.37057	-1569.30554	327.11612	183.80519	-1702.15137	155.87132	129.80800	-1790.32910	97.92879	45.34405	-1620.89319	84.20435	144.11971	-1526.47778	79.13801	96.49529	-1840.75562	1548.96777	41.68169	-1698.44751	1556.68677	-20.64383	-1776.97742	1439.11096	-39.97147	-1695.84387	1577.05481	104.09014	-1790.15955	1448.19006	138.32941	
2	0.008	-1634.79626	936.80402	40.24303	-1435.27319	893.26184	-103.07036	-1620.76514	930.23938	-81.05150	-1405.97339	873.19409	147.90497	-1599.55701	923.52704	167.92023	-1679.07214	1066.43896	44.55907	-1715.51758	1192.54065	46.46793	-1723.88184	1294.15662	46.64740	-1633.82471	1002.93073	126.63740	-1724.23669	1245.91699	-57.48869	-1434.44006	1200.08923	9.13187	-1469.56116	1255.23193	64.38503	-1501.36047	1284.73315	-56.43127	-1501.33618	1279.95801	144.15164	-1616.14563	1320.68091	-144.81381	-1542.77307	1124.40784	-197.83772	-1616.17444	1002.48010	-257.58273	-1464.66992	1030.75122	-166.12053	-1381.44202	990.93311	-169.82466	-1317.32593	946.43597	-146.89185	-1371.89246	1045.47449	-111.86905	-1320.28552	1016.85596	-154.02107	-1610.69824	1282.84998	254.89264	-1496.24707	1127.46631	286.72778	-1517.72827	986.82495	351.96658	-1425.22693	1064.00452	269.91348	-1310.40283	1051.09204	247.47833	-1242.07068	1028.26453	194.85204	-1340.34473	1107.80798	207.42770	-1263.71216	1089.55408	227.56915	-1358.25330	696.64594	-148.51924	-1305.33264	494.12421	-184.77924	-1476.71057	477.97598	-153.85014	-1624.81897	348.64706	-105.89275	-1722.83557	375.76721	-8.31000	-1659.48999	240.29259	-120.89432	-1622.28491	138.16927	-94.83878	-1378.43689	585.53638	124.28310	-1401.97693	405.62631	153.51686	-1563.58813	325.16989	185.68896	-1700.95105	157.75839	130.99388	-1790.45520	102.08289	46.93061	-1621.56384	81.79623	146.18851	-1526.71240	79.63857	96.77554	-1810.50696	1548.25439	42.56078	-1668.80713	1555.37256	-20.30019	-1747.40356	1437.80176	-38.48991	-1665.31775	1576.19067	104.36095	-1759.64795	1447.52930	139.32027	
3	0.017	-1603.82837	935.48181	39.55785	-1401.94702	893.06647	-100.36613	-1588.08459	929.70056	-81.53284	-1376.63062	870.66882	150.66811	-1569.91687	921.27466	167.46553	-1648.78772	1064.19092	46.69706	-1685.29773	1191.37341	49.53860	-1693.87988	1293.52612	49.16812	-1603.41711	1002.06372	126.86640	-1696.02734	1245.02649	-53.97307	-1403.88281	1200.12866	7.96806	-1439.14551	1255.03284	63.84883	-1472.46863	1284.28259	-57.59386	-1470.37097	1280.27087	143.08328	-1589.31799	1319.61401	-143.47270	-1527.58923	1120.78284	-200.73979	-1611.58752	1005.25067	-260.46414	-1455.49622	1016.52301	-173.64606	-1377.07056	967.33588	-181.08949	-1317.52942	914.97260	-160.68169	-1359.60754	1018.23785	-122.65587	-1313.06165	985.43481	-167.23524	-1578.61487	1282.00940	256.81339	-1453.49768	1135.50049	283.16730	-1460.30933	989.97845	343.21555	-1377.96191	1081.10205	265.11551	-1263.05432	1083.90210	241.27509	-1193.00916	1071.71594	189.80522	-1299.74927	1137.09290	202.63234	-1220.39917	1128.70508	223.26721	-1318.89551	707.68781	-144.68721	-1253.18262	508.16321	-181.36751	-1423.49902	480.52396	-151.26929	-1564.64294	342.75974	-106.45799	-1666.27771	361.22974	-8.99295	-1590.96167	231.45074	-121.46604	-1545.67542	134.01715	-96.87221	-1360.10242	577.33649	127.51026	-1394.28589	398.53009	157.84920	-1557.28406	324.39291	188.14890	-1698.90771	162.12331	131.85368	-1787.81152	105.35442	49.04021	-1619.74194	83.00957	147.11263	-1528.18665	79.10561	95.88654	-1779.89514	1548.19202	43.77066	-1638.86487	1553.61633	-19.32854	-1718.36182	1436.94946	-37.34469	-1634.87378	1575.98657	104.61973	-1729.37598	1447.26208	140.65511	
4	0.025	-1571.45459	934.62579	37.94426	-1367.16785	892.69525	-98.25327	-1553.50574	930.61133	-83.64008	-1346.76685	867.88177	152.71597	-1540.15601	919.40814	165.63483	-1618.78162	1062.35339	46.88837	-1654.80750	1190.20874	53.12959	-1663.93542	1291.74500	51.70400	-1571.36804	1000.41431	125.71960	-1665.38391	1243.09033	-50.47108	-1373.56519	1200.87085	8.55391	-1408.63708	1255.38745	62.90732	-1443.58533	1283.78174	-58.53788	-1439.73022	1281.68884	142.34587	-1561.53076	1318.45361	-143.02632	-1512.40540	1118.24121	-204.69507	-1607.43994	1010.87323	-263.51907	-1448.05408	1004.26569	-180.67181	-1374.82520	948.64886	-192.17192	-1320.51648	889.67950	-174.96083	-1351.67407	995.43695	-133.18068	-1309.22632	960.53937	-179.32253	-1546.47949	1281.75867	258.52966	-1412.03857	1143.66357	279.01660	-1403.57581	996.31183	333.47977	-1334.03711	1100.34338	258.76501	-1220.40210	1118.91577	237.43443	-1148.65991	1116.42236	183.72816	-1262.54114	1168.40515	199.96019	-1183.36255	1169.15613	219.61256	-1278.93433	718.53094	-139.92566	-1203.03284	522.99426	-178.27065	-1371.38208	483.09134	-149.43655	-1503.51343	335.40533	-106.59946	-1608.13086	345.57590	-11.05875	-1522.29419	222.80984	-122.45953	-1468.84460	129.39908	-97.59201	-1343.40112	569.04340	132.73973	-1384.68909	393.77530	161.82568	-1550.96606	324.71072	190.30151	-1695.54639	164.56844	133.50731	-1786.23413	111.33230	49.88902	-1619.76013	82.63728	146.57663	-1528.46082	79.00916	95.90394	-1748.95117	1547.41467	44.98470	-1608.32886	1552.53113	-18.45474	-1689.15430	1436.92078	-36.53719	-1604.32385	1573.97253	105.92447	-1699.54236	1447.23303	142.02362	
